<?xml version="1.0" encoding="UTF-8"?>
<svg id="_Слой_2" data-name="Слой 2" xmlns="http://www.w3.org/2000/svg" viewBox="0 0 1955.31 799.54">
  <defs>
    <style>
      .cls-1 {
        fill: #fff;
      }

      .cls-2 {
        fill: #19132e;
      }

      .cls-3 {
        fill: #33276a;
      }
    </style>
  </defs>
  <g id="_Слой_1-2" data-name="Слой 1">
    <path class="cls-3" d="m1089.77,8.83h0c-30.02,0-54.35,24.33-54.35,54.35v57.88l10.99-10.99,20.25,20.25,21.19-21.19,22.72,22.72,21.66-21.66,11.89,11.89v-58.9c0-30.02-24.33-54.35-54.35-54.35Z"/>
    <path class="cls-1" d="m1071.26,80.8c-9.19.41-16.87-7.47-16.21-16.65.19-2.68.21-2.74,2.81-2.15,6.84,1.56,13.67,3.18,20.51,4.78,2.23.52,4.45,1.1,6.7,1.55.91.18.93.55.7,1.3-1.88,6.37-7.69,10.86-14.51,11.16Z"/>
    <path class="cls-1" d="m1128.73,64.81c.01,8.04-5.8,14.81-13.27,15.84-7.96,1.09-15.26-3.54-17.47-11.03-.24-.8-.12-1.1.73-1.29,7.27-1.67,14.54-3.39,21.81-5.09,2.27-.53,4.55-1,6.8-1.6.9-.24,1.16.13,1.24.87.09.88.14,1.77.18,2.3Z"/>
    <path class="cls-2" d="m1089.76,0h0c-34.56,0-62.58,28.02-62.58,62.58v81.59l17.64-17.89,21.98,22.29,21.98-22.29,21.98,22.29,21.97-22.29,19.61,19.89V62.58c0-34.56-28.02-62.58-62.58-62.58Zm54.36,67.3v54.78l-11.89-11.89-21.66,21.66-22.72-22.72-21.19,21.19-20.25-20.25-10.99,10.99v-57.88c0-30.02,24.33-54.35,54.35-54.35h0c30.02,0,54.35,24.33,54.35,54.35v4.12Z"/>
    <g>
      <path class="cls-1" d="m953.62,170.16v8.24h0v16.49h-16.96c-5.24,0-10.18-1.98-13.91-5.58-3.8-3.66-5.89-8.56-5.89-13.78s2.09-10.11,5.89-13.77c3.73-3.6,8.67-5.58,13.91-5.58h16.89v8.24h-18.59c-5.7.8-9.98,5.57-9.98,11.12s4.28,10.32,9.98,11.12h10.42v-8.26h-9.62l-.42-.9-2.38-5.15-1.01-2.19h21.66Z"/>
      <path class="cls-1" d="m994.14,156.11v8.24h-34.66v-8.24h34.66Zm-26.42,30.55h26.42v8.24h-34.66v-8.24s0-16.62,0-16.62l8.24.05h22.96v8.24h-22.96v8.33Z"/>
      <path class="cls-1" d="m1034.92,155.83v39.07h-8.24v-20.98l-4.37,4.37-1.68,1.68-.45.45-1.51,1.51-1.09,1.09-5.54-5.54-3.81-3.8-8.24-8.24v-9.61h2.05l7.84,7.84,7.7,7.71,15.54-15.54h1.8Zm-34.93,17.72l8.24,8.22v13.12h-8.24v-21.34Z"/>
      <path class="cls-1" d="m1075.51,156.11v8.24h-34.66v-8.24h34.66Zm-26.42,30.55h26.42v8.24h-34.66v-8.24s0-16.62,0-16.62l8.24.05h22.96v8.24h-22.96v8.33Z"/>
      <path class="cls-1" d="m1139.83,177.3c1.01,1.77,1.55,3.79,1.55,5.83s-.54,4.07-1.55,5.83c-2.09,3.66-6.01,5.93-10.21,5.93h-11.67c-5.17,0-9.52-3.49-10.83-8.24-.26-.95-.4-1.96-.4-2.99h8.07c0,1.39.9,2.57,2.14,2.99h12.69c1.94,0,3.52-1.58,3.52-3.52s-1.58-3.52-3.52-3.52h-11.14c-3.3,0-6.41-1.39-8.61-3.75-.61-.65-1.15-1.38-1.61-2.18-1.01-1.77-1.54-3.79-1.54-5.83s.53-4.07,1.54-5.83c2.09-3.66,6.01-5.93,10.22-5.93h11.87c5.17,0,9.52,3.49,10.83,8.24.26.95.4,1.96.4,2.99h-8.07c0-1.39-.9-2.57-2.14-2.99h-12.89c-1.94,0-3.52,1.58-3.52,3.52s1.58,3.52,3.52,3.52h11.14c4.21,0,8.12,2.27,10.21,5.93Z"/>
      <path class="cls-1" d="m1182.12,156.11v8.24h-34.66v-8.24h34.66Zm-26.42,30.55h26.42v8.24h-34.66v-8.24s0-16.62,0-16.62l8.24.05h22.96v8.24h-22.96v8.33Z"/>
      <path class="cls-1" d="m1219.4,156.04v38.86h-1.97l-5.82-5.82-9.76-9.76-5.64-5.64-8.24-8.24v-8.61s0-1,0-1h2.04l21.15,21.15v-20.94h8.24Zm-31.43,17.52l8.24,8.24v13.05h-8.24v-21.29Z"/>
      <path class="cls-1" d="m1258.36,177.3c1.01,1.77,1.55,3.79,1.55,5.83s-.54,4.07-1.55,5.83c-2.09,3.66-6.01,5.93-10.21,5.93h-11.67c-5.17,0-9.52-3.49-10.83-8.24-.26-.95-.4-1.96-.4-2.99h8.07c0,1.39.9,2.57,2.14,2.99h12.69c1.94,0,3.52-1.58,3.52-3.52s-1.58-3.52-3.52-3.52h-11.14c-3.3,0-6.41-1.39-8.61-3.75-.61-.65-1.15-1.38-1.61-2.18-1.01-1.77-1.54-3.79-1.54-5.83s.53-4.07,1.54-5.83c2.09-3.66,6.01-5.93,10.22-5.93h11.87c5.17,0,9.52,3.49,10.83,8.24.26.95.4,1.96.4,2.99h-8.07c0-1.39-.9-2.57-2.14-2.99h-12.89c-1.94,0-3.52,1.58-3.52,3.52s1.58,3.52,3.52,3.52h11.14c4.21,0,8.12,2.27,10.21,5.93Z"/>
      <path class="cls-1" d="m1300.65,156.11v8.24h-34.66v-8.24h34.66Zm-26.42,30.55h26.42v8.24h-34.66v-8.24s0-16.62,0-16.62l8.24.05h22.96v8.24h-22.96v8.33Z"/>
    </g>
    <g>
      <path class="cls-2" d="m926.55,230.45c-.16-.16-.23-.44-.23-.84v-15.25c0-.4.08-.67.23-.82s.44-.22.84-.22h1.71c.42,0,.71.07.87.22s.23.42.23.82v5.66h1.84l4.52-5.93c.27-.36.51-.58.74-.65.22-.08.65-.12,1.27-.12h1.67c.65,0,.97.17.97.5,0,.18-.11.41-.33.7l-5.03,6.27c.49.25.93.59,1.31,1.04.38.45.75,1.03,1.11,1.74l2.92,5.86c.18.36.27.61.27.77,0,.31-.31.47-.94.47h-1.68c-.58,0-.98-.06-1.19-.17s-.42-.37-.62-.77l-2.04-4.46c-.27-.58-.61-1-1.02-1.26s-.97-.39-1.66-.39h-2.11v5.96c0,.4-.08.68-.23.84s-.45.23-.87.23h-1.71c-.4,0-.68-.08-.84-.23Z"/>
      <path class="cls-2" d="m948.92,229.41c-1.33-1.18-1.99-2.83-1.99-4.92v-4.96c0-2.1.67-3.74,1.99-4.93,1.33-1.18,3.22-1.78,5.68-1.78s4.42.59,5.75,1.78c1.33,1.18,1.99,2.83,1.99,4.93v4.96c0,2.1-.67,3.74-1.99,4.92-1.33,1.18-3.24,1.78-5.75,1.78s-4.35-.59-5.68-1.78Zm2.88-2.58c.66.56,1.59.84,2.8.84s2.21-.28,2.87-.84c.66-.56.99-1.34.99-2.35v-4.96c0-1.03-.33-1.81-.99-2.36-.66-.55-1.61-.82-2.87-.82s-2.17.27-2.81.82c-.65.55-.97,1.33-.97,2.36v4.96c0,1,.33,1.79.99,2.35Z"/>
      <path class="cls-2" d="m969.71,230.48c-.13-.13-.2-.41-.2-.84v-15.21c0-.42.08-.71.23-.87s.46-.23.91-.23h1.34c.42,0,.74.06.94.17.2.11.39.33.57.67l4.83,8.71,4.82-8.68c.18-.34.36-.56.54-.69.18-.12.47-.18.87-.18h1.51c.45,0,.74.08.89.23.14.16.22.45.22.87v15.21c0,.4-.08.68-.23.82-.16.15-.42.22-.8.22h-1.54c-.42,0-.7-.07-.84-.2-.13-.13-.2-.41-.2-.84v-6.07c0-1.38.23-3.04.7-4.96h-.17c-.27.8-.53,1.47-.77,2.01-.25.54-.55,1.11-.9,1.71l-2.38,4.09c-.18.31-.35.52-.5.62s-.4.15-.74.15h-.94c-.33,0-.59-.05-.75-.15-.17-.1-.35-.32-.55-.65l-2.31-4.02c-.38-.6-.69-1.17-.92-1.69-.23-.53-.5-1.22-.79-2.09h-.13c.47,2.14.7,3.84.7,5.09v5.96c0,.4-.08.68-.23.82-.16.15-.42.22-.8.22h-1.51c-.42,0-.7-.07-.84-.2Z"/>
      <path class="cls-2" d="m995.11,230.45c-.16-.16-.23-.42-.23-.8v-15.31c0-.38.08-.64.23-.79s.42-.22.8-.22h12.6c.38,0,.65.07.8.22s.23.41.23.79v15.31c0,.38-.08.65-.23.8s-.42.23-.8.23h-1.84c-.38,0-.64-.08-.79-.23s-.22-.42-.22-.8v-12.73h-6.9v12.73c0,.38-.08.65-.23.8s-.42.23-.8.23h-1.81c-.38,0-.65-.08-.8-.23Z"/>
      <path class="cls-2" d="m1017.46,230.45c-.16-.16-.23-.42-.23-.8v-15.31c0-.38.08-.64.23-.79s.42-.22.8-.22h1.81c.38,0,.65.07.8.22s.23.41.23.79v4.02h4.46c1.94,0,3.49.55,4.62,1.64,1.14,1.09,1.71,2.59,1.71,4.49s-.57,3.43-1.71,4.54c-1.14,1.11-2.68,1.66-4.62,1.66h-7.3c-.38,0-.65-.08-.8-.23Zm7.61-3.25c.85,0,1.52-.25,2.03-.75.5-.5.75-1.16.75-1.96s-.25-1.41-.75-1.89c-.5-.48-1.18-.72-2.03-.72h-3.95v5.33h3.95Z"/>
      <path class="cls-2" d="m1047.34,229.43c-1.29-1.17-1.94-2.81-1.94-4.91v-.84h-3.05v5.96c0,.38-.08.65-.23.8s-.42.23-.8.23h-1.81c-.38,0-.65-.08-.8-.23s-.23-.42-.23-.8v-15.31c0-.38.08-.64.23-.79s.42-.22.8-.22h1.81c.38,0,.65.07.8.22s.23.41.23.79v5.73h3.05v-.57c0-2.1.65-3.74,1.94-4.91,1.3-1.17,3.15-1.76,5.56-1.76s4.3.59,5.6,1.78c1.29,1.18,1.94,2.83,1.94,4.93v4.99c0,2.1-.64,3.74-1.93,4.91-1.29,1.17-3.16,1.76-5.61,1.76s-4.27-.59-5.56-1.76Zm2.92-2.6c.62.56,1.51.84,2.65.84s2.09-.28,2.71-.84c.62-.56.94-1.34.94-2.35v-4.99c0-1.03-.31-1.81-.94-2.35-.63-.54-1.53-.8-2.71-.8s-2.05.27-2.66.8-.92,1.32-.92,2.35v4.99c0,1,.31,1.79.94,2.35Z"/>
      <path class="cls-2" d="m1071.6,230.45c-.16-.16-.24-.42-.24-.8v-12.73h-4.39c-.38,0-.64-.08-.79-.23-.15-.16-.22-.42-.22-.8v-1.54c0-.38.07-.64.22-.79.14-.15.41-.22.79-.22h12.67c.38,0,.64.07.79.22s.22.41.22.79v1.54c0,.38-.07.65-.22.8s-.41.23-.79.23h-4.39v12.73c0,.38-.08.65-.23.8s-.42.23-.8.23h-1.81c-.38,0-.65-.08-.8-.23Z"/>
      <path class="cls-2" d="m1088,229.24c-1.26-1.29-1.89-3.04-1.89-5.23v-3.95c0-2.35.66-4.14,1.99-5.38,1.33-1.24,3.26-1.86,5.78-1.86s4.48.65,5.8,1.94c1.32,1.3,1.98,2.96,1.98,4.99v2.04c0,.96-.5,1.44-1.51,1.44h-10.15v1.24c0,1.09.33,1.93.99,2.5.66.57,1.61.85,2.86.85,1.85,0,3.17-.59,3.95-1.78.31-.45.61-.67.9-.67.2,0,.46.09.77.27l1.17.64c.45.22.67.51.67.87,0,.27-.09.54-.27.8-1.32,2.14-3.73,3.22-7.24,3.22-2.61,0-4.55-.65-5.81-1.94Zm9.77-8.98v-.74c0-1.09-.33-1.94-.99-2.53s-1.62-.89-2.9-.89-2.21.3-2.88.89-1,1.43-1,2.53v.74h7.77Z"/>
      <path class="cls-2" d="m1108.74,237.82c-.15-.16-.22-.42-.22-.8v-21.31c0-.54.08-.93.25-1.19.17-.26.52-.5,1.06-.72,1.72-.65,3.88-.97,6.47-.97,2.39,0,4.17.58,5.33,1.74,1.16,1.16,1.74,2.84,1.74,5.03v4.59c0,2.28-.62,4.02-1.86,5.21-1.24,1.2-3.11,1.79-5.61,1.79-.6,0-1.15-.05-1.64-.15-.49-.1-1.11-.25-1.84-.45v6.43c0,.38-.08.65-.23.8-.16.16-.42.24-.8.24h-1.84c-.38,0-.64-.08-.79-.24Zm6.89-10.19c1.32,0,2.29-.3,2.92-.89.62-.59.94-1.49.94-2.7v-4.36c0-1.09-.32-1.92-.96-2.48-.64-.56-1.56-.84-2.76-.84s-2.18.12-3.05.37c-.13.04-.22.1-.25.15-.03.06-.05.15-.05.28v9.95c1.29.33,2.37.5,3.22.5Z"/>
      <path class="cls-2" d="m1130.77,230.45c-.16-.16-.23-.42-.23-.8v-15.31c0-.38.08-.64.23-.79s.42-.22.8-.22h1.81c.38,0,.65.07.8.22s.23.41.23.79v5.7h7.04v-5.7c0-.38.07-.64.22-.79s.41-.22.79-.22h1.84c.38,0,.65.07.8.22s.23.41.23.79v15.31c0,.38-.08.65-.23.8s-.42.23-.8.23h-1.84c-.38,0-.64-.08-.79-.23s-.22-.42-.22-.8v-6h-7.04v6c0,.38-.08.65-.23.8s-.42.23-.8.23h-1.81c-.38,0-.65-.08-.8-.23Z"/>
      <path class="cls-2" d="m1153.29,230.45c-.16-.16-.23-.42-.23-.8v-15.31c0-.38.08-.64.23-.79s.42-.22.8-.22h1.81c.38,0,.65.07.8.22s.23.41.23.79v4.02h4.46c1.94,0,3.49.55,4.62,1.64,1.14,1.09,1.71,2.59,1.71,4.49s-.57,3.43-1.71,4.54c-1.14,1.11-2.68,1.66-4.62,1.66h-7.3c-.38,0-.65-.08-.8-.23Zm7.61-3.25c.85,0,1.52-.25,2.03-.75.5-.5.75-1.16.75-1.96s-.25-1.41-.75-1.89c-.5-.48-1.18-.72-2.03-.72h-3.95v5.33h3.95Zm8.64-12.87c0-.38.08-.64.23-.79s.42-.22.8-.22h1.81c.38,0,.65.07.8.22.16.15.23.41.23.79v15.31c0,.38-.08.65-.23.8-.16.16-.42.23-.8.23h-1.81c-.38,0-.65-.08-.8-.23s-.23-.42-.23-.8v-15.31Z"/>
      <path class="cls-2" d="m1181.37,230.45c-.16-.16-.23-.42-.23-.8v-15.31c0-.38.08-.64.23-.79s.42-.22.8-.22h1.81c.38,0,.65.07.8.22s.23.41.23.79v6.4c0,.92-.06,1.74-.17,2.46-.11.73-.29,1.54-.54,2.43h.13c.29-.71.56-1.28.8-1.69s.6-.98,1.07-1.69l5.93-8.41c.22-.33.55-.5.97-.5h1.84c.38,0,.65.07.8.22.16.15.23.41.23.79v15.31c0,.38-.08.65-.23.8-.16.16-.42.23-.8.23h-1.84c-.38,0-.64-.08-.79-.23-.15-.16-.22-.42-.22-.8v-6.3c0-.98.06-1.82.17-2.51.11-.69.29-1.5.54-2.41h-.1c-.27.62-.54,1.18-.82,1.66s-.65,1.06-1.12,1.73l-5.86,8.34c-.16.2-.31.34-.45.42-.15.08-.34.12-.59.12h-1.81c-.38,0-.65-.08-.8-.23Zm2.01-23.29c0-.27.18-.47.54-.6l1.34-.5c.11-.04.27-.07.47-.07.27,0,.46.15.57.44.18.56.47.99.87,1.29.4.3.88.45,1.44.45,1.14,0,1.93-.58,2.38-1.74.13-.31.31-.47.54-.47.04,0,.16.02.33.07l1.51.54c.36.16.54.36.54.6,0,.07-.02.19-.07.37-.4,1.07-1.06,1.91-1.96,2.51-.91.6-1.99.9-3.27.9s-2.33-.3-3.23-.9c-.9-.6-1.55-1.44-1.93-2.51-.05-.18-.07-.3-.07-.37Z"/>
      <path class="cls-2" d="m1214.74,230.45c-.16-.16-.23-.44-.23-.84v-15.25c0-.4.08-.67.23-.82s.44-.22.84-.22h1.71c.42,0,.71.07.87.22s.23.42.23.82v5.66h1.84l4.52-5.93c.27-.36.51-.58.74-.65.22-.08.65-.12,1.27-.12h1.67c.65,0,.97.17.97.5,0,.18-.11.41-.33.7l-5.03,6.27c.49.25.93.59,1.31,1.04.38.45.75,1.03,1.11,1.74l2.92,5.86c.18.36.27.61.27.77,0,.31-.31.47-.94.47h-1.68c-.58,0-.98-.06-1.19-.17s-.42-.37-.62-.77l-2.04-4.46c-.27-.58-.61-1-1.02-1.26s-.97-.39-1.66-.39h-2.11v5.96c0,.4-.08.68-.23.84s-.45.23-.87.23h-1.71c-.4,0-.68-.08-.84-.23Z"/>
      <path class="cls-2" d="m1235.85,231.15c-.34,0-.62-.21-.84-.64l-.87-1.74c-.09-.18-.13-.35-.13-.5,0-.29.18-.51.54-.67.6-.31,1.09-.69,1.47-1.12s.71-1.22,1-2.34.44-2.73.44-4.81v-4.99c0-.38.08-.64.24-.79.16-.15.42-.22.8-.22h10.72c.38,0,.64.07.79.22.14.15.22.41.22.79v15.31c0,.38-.07.65-.22.8-.15.16-.41.23-.79.23h-1.84c-.38,0-.65-.08-.8-.23s-.23-.42-.23-.8v-12.73h-5.09v2.65c0,2.64-.23,4.73-.69,6.28-.46,1.55-1.03,2.69-1.73,3.42-.69.73-1.53,1.32-2.51,1.79-.16.07-.31.1-.47.1Z"/>
      <path class="cls-2" d="m1258.33,235.34c-.2-.29-.3-.55-.3-.77,0-.36.23-.66.7-.9l1.27-.7c.29-.16.55-.23.77-.23.31,0,.61.21.9.64.38.58.84,1.02,1.39,1.31.55.29,1.26.44,2.13.44,1.16,0,2.04-.31,2.65-.94.6-.63.9-1.53.9-2.71v-1.57c-1.34.31-2.67.47-3.99.47-2.34,0-4.09-.58-5.24-1.74-1.15-1.16-1.73-2.83-1.73-4.99v-9.28c0-.38.07-.64.22-.79.14-.15.41-.22.79-.22h1.84c.38,0,.65.07.8.22.16.15.23.41.23.79v9.15c0,1.12.3,1.95.9,2.5.6.55,1.52.82,2.75.82,1.07,0,2.21-.16,3.42-.47v-12c0-.38.08-.64.24-.79.16-.15.42-.22.8-.22h1.81c.4,0,.67.07.82.22s.22.41.22.79v16.92c0,2.3-.6,4.1-1.79,5.39-1.2,1.3-3.05,1.94-5.58,1.94-3.33,0-5.64-1.08-6.94-3.25Z"/>
      <path class="cls-2" d="m1282.22,229.39c-1.32-1.19-1.98-2.86-1.98-5.01v-8.01c0-2.37.29-4.29.87-5.76.58-1.47,1.54-2.57,2.88-3.3,1.34-.73,3.15-1.09,5.43-1.09h1.07c1,0,1.8-.12,2.38-.37.27-.13.48-.2.64-.2.36,0,.62.29.8.87l.47,1.31c.07.22.1.41.1.57,0,.2-.06.37-.17.5-.11.13-.3.27-.57.4-.45.22-.92.37-1.42.44-.5.07-1.22.1-2.16.1h-1.11c-1.47,0-2.62.17-3.43.52-.82.35-1.38.91-1.71,1.69-.32.78-.49,1.87-.49,3.25v.54c.4-.56.99-1.04,1.78-1.46.78-.41,1.84-.62,3.18-.62,2.14,0,3.83.61,5.06,1.83,1.23,1.22,1.84,2.89,1.84,5.01v3.79c0,2.14-.66,3.81-1.98,5.01-1.32,1.2-3.24,1.79-5.76,1.79s-4.41-.6-5.73-1.79Zm2.9-2.58c.64.57,1.58.85,2.83.85s2.2-.28,2.85-.85c.65-.57.97-1.39.97-2.46v-3.75c0-1.07-.32-1.89-.96-2.46s-1.59-.85-2.87-.85c-1.21,0-2.13.28-2.78.84-.65.56-.98,1.27-1.01,2.14v4.09c0,1.07.32,1.89.96,2.46Z"/>
    </g>
    <path class="cls-3" d="m62.59,100.24h0c-30.02,0-54.35,24.33-54.35,54.35v57.88l10.99-10.99,20.25,20.25,21.19-21.19,22.72,22.72,21.66-21.66,11.89,11.89v-58.9c0-30.02-24.33-54.35-54.35-54.35Z"/>
    <path class="cls-1" d="m44.08,172.21c-9.19.41-16.87-7.47-16.21-16.65.19-2.68.21-2.74,2.81-2.15,6.84,1.56,13.67,3.18,20.51,4.78,2.23.52,4.45,1.1,6.7,1.55.91.18.93.55.7,1.3-1.88,6.37-7.69,10.86-14.51,11.16Z"/>
    <path class="cls-1" d="m101.55,156.22c.01,8.04-5.8,14.81-13.27,15.84-7.96,1.09-15.26-3.54-17.47-11.03-.24-.8-.12-1.1.73-1.29,7.27-1.67,14.54-3.39,21.81-5.09,2.27-.53,4.55-1,6.8-1.6.9-.24,1.16.13,1.24.87.09.88.14,1.77.18,2.3Z"/>
    <path class="cls-2" d="m62.58,91.41h0C28.02,91.41,0,119.43,0,153.99v81.59l17.64-17.89,21.98,22.29,21.98-22.29,21.98,22.29,21.97-22.29,19.61,19.89v-83.59c0-34.56-28.02-62.58-62.58-62.58Zm54.36,67.3v54.78l-11.89-11.89-21.66,21.66-22.72-22.72-21.19,21.19-20.25-20.25-10.99,10.99v-57.88c0-30.02,24.33-54.35,54.35-54.35h0c30.02,0,54.35,24.33,54.35,54.35v4.12Z"/>
    <g>
      <path class="cls-1" d="m207.16,123.61v14.55h0v29.12h-29.95c-9.26,0-17.98-3.5-24.56-9.86-6.71-6.47-10.41-15.11-10.41-24.33s3.69-17.86,10.4-24.32c6.58-6.36,15.31-9.86,24.57-9.86h29.83v14.55h-32.83c-10.06,1.42-17.62,9.83-17.62,19.64s7.56,18.22,17.62,19.64h18.4v-14.58h-16.98l-.73-1.58-4.2-9.09-1.79-3.87h38.25Z"/>
      <path class="cls-1" d="m278.71,98.79v14.55h-61.21v-14.55h61.21Zm-46.65,53.95h46.65v14.55h-61.21v-14.55s0-29.35,0-29.35l14.55.09h40.55v14.55h-40.55v14.71Z"/>
      <path class="cls-1" d="m350.73,98.3v68.99h-14.55v-37.04l-7.72,7.72-2.97,2.97-.8.8-2.66,2.66-1.93,1.92-9.79-9.79-6.72-6.72-14.55-14.55v-16.96h3.62l13.84,13.84,13.6,13.61,27.45-27.45h3.18Zm-61.69,31.3l14.55,14.52v23.17h-14.55v-37.69Z"/>
      <path class="cls-1" d="m422.41,98.79v14.55h-61.21v-14.55h61.21Zm-46.65,53.95h46.65v14.55h-61.21v-14.55s0-29.35,0-29.35l14.55.09h40.55v14.55h-40.55v14.71Z"/>
      <path class="cls-1" d="m536,136.21c1.79,3.12,2.73,6.68,2.73,10.3s-.95,7.18-2.73,10.3c-3.7,6.46-10.61,10.47-18.04,10.47h-20.6c-9.12,0-16.81-6.16-19.12-14.55-.46-1.68-.71-3.46-.71-5.29h14.25c0,2.45,1.58,4.54,3.78,5.29h22.41c3.43,0,6.22-2.79,6.22-6.22s-2.79-6.22-6.22-6.22h-19.67c-5.82,0-11.32-2.46-15.2-6.62-1.08-1.16-2.03-2.44-2.84-3.84-1.79-3.12-2.73-6.68-2.73-10.3s.94-7.18,2.73-10.3c3.7-6.46,10.61-10.47,18.04-10.47h20.96c9.12,0,16.81,6.16,19.12,14.55.46,1.68.71,3.46.71,5.29h-14.25c0-2.45-1.58-4.53-3.78-5.29h-22.77c-3.43,0-6.22,2.79-6.22,6.22s2.79,6.22,6.22,6.22h19.67c7.43,0,14.34,4.01,18.04,10.47Z"/>
      <path class="cls-1" d="m610.68,98.79v14.55h-61.21v-14.55h61.21Zm-46.65,53.95h46.65v14.55h-61.21v-14.55s0-29.35,0-29.35l14.55.09h40.55v14.55h-40.55v14.71Z"/>
      <path class="cls-1" d="m676.52,98.67v68.62h-3.48l-10.27-10.27-17.24-17.24-9.96-9.96-14.55-14.55v-15.21s0-1.76,0-1.76h3.61l37.34,37.34v-36.97h14.55Zm-55.5,30.94l14.55,14.54v23.04h-14.55v-37.58Z"/>
      <path class="cls-1" d="m745.32,136.21c1.79,3.12,2.73,6.68,2.73,10.3s-.95,7.18-2.73,10.3c-3.7,6.46-10.61,10.47-18.04,10.47h-20.6c-9.12,0-16.81-6.16-19.12-14.55-.46-1.68-.71-3.46-.71-5.29h14.25c0,2.45,1.58,4.54,3.78,5.29h22.41c3.43,0,6.22-2.79,6.22-6.22s-2.79-6.22-6.22-6.22h-19.67c-5.82,0-11.32-2.46-15.2-6.62-1.08-1.16-2.03-2.44-2.84-3.84-1.79-3.12-2.73-6.68-2.73-10.3s.94-7.18,2.73-10.3c3.7-6.46,10.61-10.47,18.04-10.47h20.96c9.12,0,16.81,6.16,19.12,14.55.46,1.68.71,3.46.71,5.29h-14.25c0-2.45-1.58-4.53-3.78-5.29h-22.77c-3.43,0-6.22,2.79-6.22,6.22s2.79,6.22,6.22,6.22h19.67c7.43,0,14.34,4.01,18.04,10.47Z"/>
      <path class="cls-1" d="m820,98.79v14.55h-61.21v-14.55h61.21Zm-46.65,53.95h46.65v14.55h-61.21v-14.55s0-29.35,0-29.35l14.55.09h40.55v14.55h-40.55v14.71Z"/>
    </g>
    <g>
      <path class="cls-2" d="m159.37,230.07c-.28-.28-.41-.77-.41-1.48v-26.92c0-.71.14-1.19.41-1.45.28-.26.77-.38,1.48-.38h3.02c.75,0,1.26.13,1.54.38.28.26.41.74.41,1.45v10h3.25l7.99-10.47c.47-.63.91-1.01,1.3-1.15.39-.14,1.14-.21,2.25-.21h2.96c1.14,0,1.72.29,1.72.89,0,.32-.2.73-.59,1.24l-8.88,11.07c.87.43,1.64,1.05,2.31,1.83.67.79,1.32,1.82,1.95,3.08l5.15,10.35c.32.63.47,1.08.47,1.36,0,.55-.55.83-1.66.83h-2.96c-1.03,0-1.73-.1-2.1-.3-.38-.2-.74-.65-1.09-1.36l-3.61-7.87c-.47-1.03-1.08-1.77-1.8-2.22-.73-.45-1.71-.68-2.93-.68h-3.73v10.53c0,.71-.14,1.2-.41,1.48-.28.28-.79.41-1.54.41h-3.02c-.71,0-1.2-.14-1.48-.41Z"/>
      <path class="cls-2" d="m198.87,228.24c-2.35-2.09-3.52-4.99-3.52-8.7v-8.76c0-3.71,1.17-6.61,3.52-8.7,2.35-2.09,5.69-3.14,10.03-3.14s7.8,1.05,10.15,3.14c2.35,2.09,3.52,4.99,3.52,8.7v8.76c0,3.71-1.17,6.61-3.52,8.7-2.35,2.09-5.73,3.14-10.15,3.14s-7.68-1.04-10.03-3.14Zm5.09-4.56c1.16.99,2.81,1.48,4.94,1.48s3.9-.49,5.06-1.48c1.16-.99,1.75-2.37,1.75-4.14v-8.76c0-1.81-.58-3.2-1.75-4.17-1.16-.97-2.85-1.45-5.06-1.45s-3.83.48-4.97,1.45c-1.14.97-1.72,2.36-1.72,4.17v8.76c0,1.78.58,3.16,1.75,4.14Z"/>
      <path class="cls-2" d="m235.58,230.13c-.24-.24-.36-.73-.36-1.48v-26.86c0-.75.14-1.26.41-1.54s.81-.41,1.6-.41h2.37c.75,0,1.3.1,1.66.29.35.2.69.59,1.01,1.18l8.52,15.38,8.52-15.33c.32-.59.63-1,.95-1.21.32-.22.83-.32,1.54-.32h2.66c.79,0,1.31.14,1.57.41s.38.79.38,1.54v26.86c0,.71-.14,1.19-.41,1.45-.28.26-.75.38-1.42.38h-2.72c-.75,0-1.24-.12-1.48-.35-.24-.24-.35-.73-.35-1.48v-10.71c0-2.45.41-5.36,1.24-8.76h-.3c-.47,1.42-.93,2.6-1.36,3.55-.43.95-.97,1.95-1.6,3.02l-4.2,7.22c-.32.55-.61.92-.89,1.09-.28.18-.71.27-1.3.27h-1.66c-.59,0-1.04-.09-1.33-.27s-.62-.56-.98-1.15l-4.08-7.1c-.67-1.06-1.21-2.06-1.63-2.99s-.88-2.16-1.39-3.7h-.24c.83,3.79,1.24,6.79,1.24,8.99v10.53c0,.71-.14,1.19-.41,1.45-.28.26-.75.38-1.42.38h-2.66c-.75,0-1.24-.12-1.48-.35Z"/>
      <path class="cls-2" d="m280.43,230.07c-.28-.28-.41-.75-.41-1.42v-27.04c0-.67.14-1.13.41-1.39.28-.26.75-.38,1.42-.38h22.25c.67,0,1.14.13,1.42.38.28.26.41.72.41,1.39v27.04c0,.67-.14,1.14-.41,1.42-.28.28-.75.41-1.42.41h-3.25c-.67,0-1.13-.14-1.39-.41-.26-.28-.38-.75-.38-1.42v-22.48h-12.19v22.48c0,.67-.14,1.14-.41,1.42-.28.28-.75.41-1.42.41h-3.2c-.67,0-1.14-.14-1.42-.41Z"/>
      <path class="cls-2" d="m319.9,230.07c-.28-.28-.41-.75-.41-1.42v-27.04c0-.67.14-1.13.41-1.39.28-.26.75-.38,1.42-.38h3.2c.67,0,1.14.13,1.42.38.28.26.41.72.41,1.39v7.1h7.87c3.43,0,6.15.97,8.17,2.9s3.02,4.58,3.02,7.93-1.01,6.06-3.02,8.02-4.73,2.93-8.17,2.93h-12.9c-.67,0-1.14-.14-1.42-.41Zm13.43-5.74c1.5,0,2.69-.44,3.58-1.33.89-.89,1.33-2.04,1.33-3.46s-.44-2.49-1.33-3.34c-.89-.85-2.08-1.27-3.58-1.27h-6.98v9.41h6.98Z"/>
      <path class="cls-2" d="m372.68,228.27c-2.29-2.07-3.43-4.96-3.43-8.67v-1.48h-5.38v10.53c0,.67-.14,1.14-.41,1.42-.28.28-.75.41-1.42.41h-3.2c-.67,0-1.14-.14-1.42-.41s-.41-.75-.41-1.42v-27.04c0-.67.14-1.13.41-1.39.28-.26.75-.38,1.42-.38h3.2c.67,0,1.14.13,1.42.38.28.26.41.72.41,1.39v10.12h5.38v-1.01c0-3.71,1.14-6.6,3.43-8.67,2.29-2.07,5.56-3.11,9.82-3.11s7.59,1.05,9.88,3.14c2.29,2.09,3.43,4.99,3.43,8.7v8.82c0,3.71-1.13,6.6-3.4,8.67s-5.57,3.11-9.91,3.11-7.54-1.04-9.82-3.11Zm5.15-4.59c1.1.99,2.66,1.48,4.67,1.48s3.69-.49,4.79-1.48c1.1-.99,1.66-2.37,1.66-4.14v-8.82c0-1.81-.55-3.2-1.66-4.14-1.1-.95-2.7-1.42-4.79-1.42s-3.62.47-4.7,1.42c-1.09.95-1.63,2.33-1.63,4.14v8.82c0,1.78.55,3.16,1.66,4.14Z"/>
      <path class="cls-2" d="m415.52,230.07c-.28-.28-.42-.75-.42-1.42v-22.48h-7.75c-.67,0-1.13-.14-1.39-.41-.26-.28-.38-.75-.38-1.42v-2.72c0-.67.13-1.13.38-1.39s.72-.38,1.39-.38h22.37c.67,0,1.13.13,1.39.38.26.26.38.72.38,1.39v2.72c0,.67-.13,1.14-.38,1.42-.26.28-.72.41-1.39.41h-7.75v22.48c0,.67-.14,1.14-.41,1.42-.28.28-.75.41-1.42.41h-3.2c-.67,0-1.14-.14-1.42-.41Z"/>
      <path class="cls-2" d="m444.48,227.94c-2.23-2.29-3.34-5.36-3.34-9.23v-6.98c0-4.14,1.17-7.31,3.52-9.5,2.35-2.19,5.75-3.29,10.21-3.29s7.91,1.14,10.24,3.43c2.33,2.29,3.49,5.23,3.49,8.82v3.61c0,1.7-.89,2.54-2.66,2.54h-17.93v2.19c0,1.93.58,3.4,1.75,4.41,1.16,1.01,2.85,1.51,5.06,1.51,3.27,0,5.6-1.04,6.98-3.14.55-.79,1.08-1.18,1.6-1.18.35,0,.81.16,1.36.47l2.07,1.12c.79.39,1.18.91,1.18,1.54,0,.47-.16.95-.47,1.42-2.33,3.79-6.59,5.68-12.78,5.68-4.62,0-8.04-1.14-10.27-3.43Zm17.25-15.86v-1.3c0-1.93-.58-3.42-1.75-4.47-1.16-1.04-2.87-1.57-5.12-1.57s-3.91.52-5.09,1.57-1.78,2.54-1.78,4.47v1.3h13.73Z"/>
      <path class="cls-2" d="m481.11,243.09c-.26-.28-.38-.75-.38-1.42v-37.63c0-.95.15-1.65.44-2.1.3-.45.92-.88,1.86-1.27,3.04-1.14,6.84-1.72,11.42-1.72,4.22,0,7.36,1.03,9.41,3.08,2.05,2.05,3.08,5.01,3.08,8.88v8.11c0,4.02-1.09,7.09-3.28,9.2-2.19,2.11-5.49,3.17-9.91,3.17-1.07,0-2.03-.09-2.9-.27-.87-.18-1.95-.44-3.25-.8v11.36c0,.67-.14,1.14-.41,1.42s-.75.42-1.42.42h-3.25c-.67,0-1.13-.14-1.39-.42Zm12.16-17.99c2.33,0,4.04-.52,5.15-1.57s1.66-2.63,1.66-4.76v-7.69c0-1.93-.56-3.39-1.69-4.38s-2.75-1.48-4.88-1.48-3.85.22-5.38.65c-.24.08-.38.17-.44.27-.06.1-.09.27-.09.5v17.57c2.29.59,4.18.89,5.68.89Z"/>
      <path class="cls-2" d="m520.01,230.07c-.28-.28-.41-.75-.41-1.42v-27.04c0-.67.14-1.13.41-1.39.28-.26.75-.38,1.42-.38h3.2c.67,0,1.14.13,1.42.38.28.26.41.72.41,1.39v10.06h12.43v-10.06c0-.67.13-1.13.38-1.39.26-.26.72-.38,1.39-.38h3.25c.67,0,1.14.13,1.42.38.28.26.41.72.41,1.39v27.04c0,.67-.14,1.14-.41,1.42-.28.28-.75.41-1.42.41h-3.25c-.67,0-1.13-.14-1.39-.41-.26-.28-.38-.75-.38-1.42v-10.59h-12.43v10.59c0,.67-.14,1.14-.41,1.42-.28.28-.75.41-1.42.41h-3.2c-.67,0-1.14-.14-1.42-.41Z"/>
      <path class="cls-2" d="m559.77,230.07c-.28-.28-.41-.75-.41-1.42v-27.04c0-.67.14-1.13.41-1.39.28-.26.75-.38,1.42-.38h3.2c.67,0,1.14.13,1.42.38.28.26.41.72.41,1.39v7.1h7.87c3.43,0,6.15.97,8.17,2.9s3.02,4.58,3.02,7.93-1.01,6.06-3.02,8.02-4.73,2.93-8.17,2.93h-12.9c-.67,0-1.14-.14-1.42-.41Zm13.43-5.74c1.5,0,2.69-.44,3.58-1.33.89-.89,1.33-2.04,1.33-3.46s-.44-2.49-1.33-3.34c-.89-.85-2.08-1.27-3.58-1.27h-6.98v9.41h6.98Zm15.27-22.72c0-.67.14-1.13.41-1.39.28-.26.75-.38,1.42-.38h3.2c.67,0,1.14.13,1.42.38.28.26.41.72.41,1.39v27.04c0,.67-.14,1.14-.41,1.42-.28.28-.75.41-1.42.41h-3.2c-.67,0-1.14-.14-1.42-.41-.28-.28-.41-.75-.41-1.42v-27.04Z"/>
      <path class="cls-2" d="m609.36,230.07c-.28-.28-.41-.75-.41-1.42v-27.04c0-.67.14-1.13.41-1.39.28-.26.75-.38,1.42-.38h3.2c.67,0,1.14.13,1.42.38.28.26.41.72.41,1.39v11.3c0,1.62-.1,3.07-.3,4.35-.2,1.28-.51,2.71-.95,4.29h.24c.51-1.26.99-2.26,1.42-2.99.43-.73,1.07-1.72,1.89-2.99l10.47-14.85c.39-.59.97-.89,1.72-.89h3.25c.67,0,1.14.13,1.42.38.28.26.41.72.41,1.39v27.04c0,.67-.14,1.14-.41,1.42-.28.28-.75.41-1.42.41h-3.25c-.67,0-1.13-.14-1.39-.41s-.38-.75-.38-1.42v-11.12c0-1.74.1-3.21.3-4.44.2-1.22.51-2.64.95-4.26h-.18c-.47,1.1-.96,2.08-1.45,2.93-.49.85-1.15,1.86-1.98,3.05l-10.35,14.73c-.28.35-.54.6-.8.74-.26.14-.6.21-1.04.21h-3.2c-.67,0-1.14-.14-1.42-.41Zm3.55-41.12c0-.47.32-.83.95-1.07l2.37-.89c.2-.08.47-.12.83-.12.47,0,.81.26,1.01.77.32.99.83,1.75,1.54,2.28.71.53,1.56.8,2.54.8,2.01,0,3.41-1.03,4.2-3.08.24-.55.55-.83.95-.83.08,0,.28.04.59.12l2.66.95c.63.28.95.63.95,1.07,0,.12-.04.33-.12.65-.71,1.89-1.86,3.37-3.46,4.44-1.6,1.06-3.52,1.6-5.77,1.6s-4.11-.53-5.71-1.6c-1.6-1.07-2.73-2.54-3.4-4.44-.08-.32-.12-.53-.12-.65Z"/>
      <path class="cls-2" d="m668.29,230.07c-.28-.28-.41-.77-.41-1.48v-26.92c0-.71.14-1.19.41-1.45.28-.26.77-.38,1.48-.38h3.02c.75,0,1.26.13,1.54.38.28.26.41.74.41,1.45v10h3.25l7.99-10.47c.47-.63.91-1.01,1.3-1.15.39-.14,1.14-.21,2.25-.21h2.96c1.14,0,1.72.29,1.72.89,0,.32-.2.73-.59,1.24l-8.88,11.07c.87.43,1.64,1.05,2.31,1.83.67.79,1.32,1.82,1.95,3.08l5.15,10.35c.32.63.47,1.08.47,1.36,0,.55-.55.83-1.66.83h-2.96c-1.03,0-1.73-.1-2.1-.3-.38-.2-.74-.65-1.09-1.36l-3.61-7.87c-.47-1.03-1.08-1.77-1.8-2.22-.73-.45-1.71-.68-2.93-.68h-3.73v10.53c0,.71-.14,1.2-.41,1.48-.28.28-.79.41-1.54.41h-3.02c-.71,0-1.2-.14-1.48-.41Z"/>
      <path class="cls-2" d="m705.57,231.31c-.59,0-1.08-.38-1.48-1.12l-1.54-3.08c-.16-.32-.24-.61-.24-.89,0-.51.32-.91.95-1.18,1.07-.55,1.93-1.21,2.6-1.98.67-.77,1.26-2.15,1.78-4.14.51-1.99.77-4.82.77-8.49v-8.82c0-.67.14-1.13.42-1.39.28-.26.75-.38,1.42-.38h18.93c.67,0,1.13.13,1.39.38.26.26.38.72.38,1.39v27.04c0,.67-.13,1.14-.38,1.42s-.72.41-1.39.41h-3.25c-.67,0-1.14-.14-1.42-.41-.28-.28-.41-.75-.41-1.42v-22.48h-8.99v4.67c0,4.66-.4,8.35-1.21,11.09s-1.83,4.75-3.05,6.04c-1.22,1.28-2.7,2.34-4.44,3.17-.28.12-.55.18-.83.18Z"/>
      <path class="cls-2" d="m745.27,238.71c-.35-.51-.53-.97-.53-1.36,0-.63.41-1.16,1.24-1.6l2.25-1.24c.51-.28.97-.41,1.36-.41.55,0,1.08.37,1.6,1.12.67,1.03,1.49,1.79,2.46,2.31.97.51,2.22.77,3.76.77,2.05,0,3.61-.55,4.67-1.66,1.07-1.1,1.6-2.7,1.6-4.79v-2.78c-2.37.55-4.71.83-7.04.83-4.14,0-7.23-1.03-9.26-3.08-2.03-2.05-3.05-4.99-3.05-8.82v-16.39c0-.67.13-1.13.38-1.39s.72-.38,1.39-.38h3.25c.67,0,1.14.13,1.42.38.28.26.41.72.41,1.39v16.15c0,1.97.53,3.44,1.6,4.41,1.07.97,2.68,1.45,4.85,1.45,1.89,0,3.91-.28,6.04-.83v-21.18c0-.67.14-1.13.41-1.39.28-.26.75-.38,1.42-.38h3.2c.71,0,1.19.13,1.45.38.26.26.38.72.38,1.39v29.88c0,4.06-1.06,7.24-3.17,9.53-2.11,2.29-5.39,3.43-9.85,3.43-5.88,0-9.96-1.91-12.25-5.74Z"/>
      <path class="cls-2" d="m787.46,228.21c-2.33-2.11-3.49-5.06-3.49-8.85v-14.14c0-4.18.51-7.57,1.54-10.18,1.03-2.6,2.72-4.55,5.09-5.83s5.56-1.92,9.59-1.92h1.89c1.77,0,3.17-.22,4.2-.65.47-.24.85-.36,1.12-.36.63,0,1.1.51,1.42,1.54l.83,2.31c.12.4.18.73.18,1.01,0,.36-.1.65-.3.89-.2.24-.53.47-1.01.71-.79.4-1.63.65-2.51.77-.89.12-2.16.18-3.82.18h-1.95c-2.6,0-4.62.31-6.06.92-1.44.61-2.45,1.61-3.02,2.99-.57,1.38-.86,3.29-.86,5.74v.95c.71-.99,1.75-1.84,3.14-2.57,1.38-.73,3.25-1.09,5.62-1.09,3.79,0,6.77,1.08,8.94,3.22,2.17,2.15,3.25,5.1,3.25,8.85v6.69c0,3.79-1.16,6.74-3.49,8.85-2.33,2.11-5.72,3.17-10.18,3.17s-7.79-1.05-10.12-3.17Zm5.12-4.56c1.12,1.01,2.79,1.51,5,1.51s3.88-.5,5.03-1.51c1.14-1.01,1.72-2.46,1.72-4.35v-6.63c0-1.89-.56-3.34-1.69-4.35s-2.81-1.51-5.06-1.51c-2.13,0-3.77.49-4.91,1.48-1.14.99-1.74,2.25-1.78,3.79v7.22c0,1.89.56,3.34,1.69,4.35Z"/>
    </g>
    <g>
      <path class="cls-2" d="m1624.38,340.46c-39.47,0-76.7-14.96-104.82-42.13-28.86-27.83-44.77-65.08-44.77-104.85s15.9-77.01,44.78-104.86c28.11-27.15,65.34-42.12,104.81-42.12h99.19c18.39,0,33.29,14.91,33.29,33.29v48.38c0,6.01-1.59,11.66-4.38,16.52,3.03,5.02,4.78,10.91,4.78,17.2v145.25c-.01,18.39-14.92,33.29-33.3,33.29h-99.58Z"/>
      <path class="cls-3" d="m1629.22,313.7c-31.84,0-61.87-12.07-84.56-33.98-23.28-22.45-36.11-52.49-36.11-84.58s12.83-62.12,36.12-84.59c22.67-21.9,52.71-33.97,84.55-33.97h80.02c14.83,0,26.85,12.03,26.85,26.86v39.03c0,4.85-1.29,9.4-3.53,13.33,2.45,4.05,3.86,8.8,3.86,13.88v117.17c0,14.83-12.03,26.85-26.86,26.85h-80.33Z"/>
      <path class="cls-1" d="m1709.56,169.68v39.05h0v78.12h-80.33c-24.83,0-48.25-9.39-65.9-26.44-18-17.36-27.91-40.53-27.91-65.26s9.91-47.9,27.91-65.25c17.66-17.06,41.07-26.45,65.9-26.45h80.02v39.03h-88.09c-27,3.81-47.28,26.37-47.28,52.68s20.29,48.87,47.28,52.67h49.37v-39.11h-45.55l-1.97-4.25-11.26-24.39-4.79-10.38h102.61Z"/>
      <path class="cls-2" d="m1783.55,340.46c-44.43,0-83.71-29.9-95.51-72.7-2.36-8.56-3.55-17.44-3.55-26.38,0-13.97,8.62-25.93,20.84-30.84-2.71-3.55-5.18-7.27-7.38-11.13-8.81-15.4-13.45-32.93-13.45-50.72s4.64-35.32,13.44-50.7c18.2-31.76,52.2-51.48,88.74-51.48h69.58c44.42,0,83.7,29.89,95.51,72.69,2.37,8.61,3.56,17.48,3.56,26.38,0,14.32-9.06,26.52-21.75,31.2,2.58,3.41,4.96,7.01,7.12,10.78,8.81,15.39,13.46,32.93,13.46,50.72s-4.65,35.32-13.45,50.71c-18.19,31.75-52.18,51.47-88.73,51.47h-68.4Z"/>
      <path class="cls-3" d="m1790.52,313.7c-35.91,0-67.65-24.16-77.19-58.75-1.91-6.92-2.87-14.09-2.87-21.32,0-11.29,6.97-20.96,16.84-24.93-2.19-2.87-4.18-5.87-5.97-8.99-7.12-12.45-10.87-26.61-10.87-40.99s3.75-28.54,10.86-40.97c14.71-25.67,42.18-41.6,71.71-41.6h56.23c35.9,0,67.64,24.16,77.18,58.74,1.92,6.96,2.88,14.12,2.88,21.32,0,11.57-7.32,21.44-17.58,25.21,2.08,2.76,4.01,5.66,5.75,8.71,7.12,12.44,10.88,26.61,10.88,40.99s-3.76,28.55-10.87,40.98c-14.7,25.66-42.17,41.59-71.7,41.59h-55.27Z"/>
      <path class="cls-1" d="m1894.19,203.49c4.79,8.38,7.33,17.93,7.33,27.64s-2.54,19.26-7.33,27.64c-9.92,17.32-28.46,28.08-48.39,28.08h-55.27c-24.48,0-45.09-16.53-51.29-39.03-1.24-4.51-1.91-9.27-1.91-14.18h38.22c0,6.57,4.25,12.16,10.13,14.18h60.13c9.2,0,16.69-7.49,16.69-16.68s-7.49-16.69-16.69-16.69h-52.76c-15.61,0-30.36-6.59-40.79-17.77-2.89-3.1-5.45-6.55-7.61-10.31-4.79-8.38-7.32-17.93-7.32-27.64s2.53-19.26,7.32-27.64c9.92-17.32,28.46-28.08,48.4-28.08h56.23c24.48,0,45.09,16.53,51.29,39.03,1.24,4.51,1.91,9.27,1.91,14.18h-38.22c0-6.57-4.25-12.16-10.14-14.18h-61.08c-9.21,0-16.69,7.49-16.69,16.68s7.48,16.69,16.69,16.69h52.76c19.93,0,38.47,10.76,48.39,28.08Z"/>
    </g>
    <path class="cls-3" d="m1805.97,315.73v-44.91c0-40.28-32.65-72.93-72.93-72.93h0c-40.28,0-72.93,32.65-72.93,72.93v47.53l-4.37.08-1.41,15.06v31.53l22.12-15.76,24.71,23.06,30.12-22.82,30.59,25.88,28.47-25.88,15.65,13.49,6.7-14.19v-33.18l-6.71.12Z"/>
    <path class="cls-1" d="m1708.21,296.78c-12.33.55-22.63-10.03-21.75-22.34.26-3.59.28-3.68,3.77-2.88,9.18,2.1,18.35,4.27,27.52,6.42,2.99.7,5.97,1.47,8.99,2.08,1.22.25,1.24.73.94,1.75-2.52,8.55-10.31,14.57-19.47,14.98Z"/>
    <path class="cls-1" d="m1785.33,275.32c.01,10.79-7.78,19.88-17.81,21.25-10.68,1.46-20.48-4.75-23.45-14.8-.32-1.07-.16-1.47.97-1.73,9.76-2.24,19.51-4.55,29.26-6.83,3.04-.71,6.1-1.35,9.12-2.14,1.21-.32,1.56.18,1.66,1.16.12,1.19.19,2.38.24,3.09Z"/>
    <path class="cls-2" d="m1733.03,188.35h0c-46.38,0-83.98,37.6-83.98,83.98v84.88s0,10.97,0,10.97c0,5,6.06,7.48,9.57,3.93l10.13-10.27c2.19-2.22,5.77-2.22,7.96,0l21.53,21.83c2.19,2.22,5.77,2.22,7.96,0l21.53-21.83c2.19-2.22,5.77-2.22,7.96,0l21.53,21.83c2.19,2.22,5.77,2.22,7.96,0l21.53-21.83c2.19-2.22,5.77-2.22,7.96,0l12.77,12.95c3.51,3.56,9.57,1.07,9.57-3.92v-98.53c0-46.38-37.6-83.98-83.98-83.98Zm72.94,90.31v60.02c0,4.98-6.02,7.47-9.54,3.95l-2.46-2.46c-2.18-2.18-5.72-2.18-7.91,0l-21.16,21.16c-2.18,2.18-5.72,2.18-7.91,0l-22.58-22.58c-2.18-2.18-5.72-2.18-7.91,0l-20.53,20.53c-2.18,2.18-5.72,2.18-7.91,0l-19.27-19.27c-2.18-2.18-5.72-2.18-7.91,0l-1.25,1.25c-3.52,3.52-9.54,1.03-9.54-3.95v-64.18c0-40.28,32.65-72.93,72.93-72.93h0c40.28,0,72.93,32.65,72.93,72.93v5.53Z"/>
    <g>
      <path class="cls-2" d="m1624.38,754.66c-39.47,0-76.7-14.96-104.82-42.13-28.86-27.83-44.77-65.08-44.77-104.85s15.9-77.01,44.78-104.86c28.11-27.15,65.34-42.12,104.81-42.12h99.19c18.39,0,33.29,14.91,33.29,33.29v48.38c0,6.01-1.59,11.66-4.38,16.52,3.03,5.02,4.78,10.91,4.78,17.2v145.25c-.01,18.39-14.92,33.29-33.3,33.29h-99.58Z"/>
      <path class="cls-3" d="m1629.22,727.9c-31.84,0-61.87-12.07-84.56-33.98-23.28-22.45-36.11-52.49-36.11-84.58s12.83-62.12,36.12-84.59c22.67-21.9,52.71-33.97,84.55-33.97h80.02c14.83,0,26.85,12.03,26.85,26.86v39.03c0,4.85-1.29,9.4-3.53,13.33,2.45,4.05,3.86,8.8,3.86,13.88v117.17c0,14.83-12.03,26.85-26.86,26.85h-80.33Z"/>
      <path class="cls-1" d="m1709.56,583.87v39.05h0v78.12h-80.33c-24.83,0-48.25-9.39-65.9-26.44-18-17.36-27.91-40.53-27.91-65.26s9.91-47.9,27.91-65.25c17.66-17.06,41.07-26.45,65.9-26.45h80.02v39.03h-88.09c-27,3.81-47.28,26.37-47.28,52.68s20.29,48.87,47.28,52.67h49.37v-39.11h-45.55l-1.97-4.25-11.26-24.39-4.79-10.38h102.61Z"/>
      <path class="cls-2" d="m1783.55,754.66c-44.43,0-83.71-29.9-95.51-72.7-2.36-8.56-3.55-17.44-3.55-26.38,0-13.97,8.62-25.93,20.84-30.84-2.71-3.55-5.18-7.27-7.38-11.13-8.81-15.4-13.45-32.93-13.45-50.72s4.64-35.32,13.44-50.7c18.2-31.76,52.2-51.48,88.74-51.48h69.58c44.42,0,83.7,29.89,95.51,72.69,2.37,8.61,3.56,17.48,3.56,26.38,0,14.32-9.06,26.52-21.75,31.2,2.58,3.41,4.96,7.01,7.12,10.78,8.81,15.39,13.46,32.93,13.46,50.72s-4.65,35.32-13.45,50.71c-18.19,31.75-52.18,51.47-88.73,51.47h-68.4Z"/>
      <path class="cls-3" d="m1790.52,727.9c-35.91,0-67.65-24.16-77.19-58.75-1.91-6.92-2.87-14.09-2.87-21.32,0-11.29,6.97-20.96,16.84-24.93-2.19-2.87-4.18-5.87-5.97-8.99-7.12-12.45-10.87-26.61-10.87-40.99s3.75-28.54,10.86-40.97c14.71-25.67,42.18-41.6,71.71-41.6h56.23c35.9,0,67.64,24.16,77.18,58.74,1.92,6.96,2.88,14.12,2.88,21.32,0,11.57-7.32,21.44-17.58,25.21,2.08,2.76,4.01,5.66,5.75,8.71,7.12,12.44,10.88,26.61,10.88,40.99s-3.76,28.55-10.87,40.98c-14.7,25.66-42.17,41.59-71.7,41.59h-55.27Z"/>
      <path class="cls-1" d="m1894.19,617.69c4.79,8.38,7.33,17.93,7.33,27.64s-2.54,19.26-7.33,27.64c-9.92,17.32-28.46,28.08-48.39,28.08h-55.27c-24.48,0-45.09-16.53-51.29-39.03-1.24-4.51-1.91-9.27-1.91-14.18h38.22c0,6.57,4.25,12.16,10.13,14.18h60.13c9.2,0,16.69-7.49,16.69-16.68s-7.49-16.69-16.69-16.69h-52.76c-15.61,0-30.36-6.59-40.79-17.77-2.89-3.1-5.45-6.55-7.61-10.31-4.79-8.38-7.32-17.93-7.32-27.64s2.53-19.26,7.32-27.64c9.92-17.32,28.46-28.08,48.4-28.08h56.23c24.48,0,45.09,16.53,51.29,39.03,1.24,4.51,1.91,9.27,1.91,14.18h-38.22c0-6.57-4.25-12.16-10.14-14.18h-61.08c-9.21,0-16.69,7.49-16.69,16.68s7.48,16.69,16.69,16.69h52.76c19.93,0,38.47,10.76,48.39,28.08Z"/>
    </g>
    <path class="cls-1" d="m1805.97,729.92v-44.91c0-40.28-32.65-72.93-72.93-72.93h0c-40.28,0-72.93,32.65-72.93,72.93v47.53l-4.37.08-1.41,15.06v31.53l22.12-15.76,24.71,23.06,30.12-22.82,30.59,25.88,28.47-25.88,15.65,13.49,6.7-14.19v-33.18l-6.71.12Z"/>
    <path class="cls-3" d="m1708.21,710.98c-12.33.55-22.63-10.03-21.75-22.34.26-3.59.28-3.68,3.77-2.88,9.18,2.1,18.35,4.27,27.52,6.42,2.99.7,5.97,1.47,8.99,2.08,1.22.25,1.24.73.94,1.75-2.52,8.55-10.31,14.57-19.47,14.98Z"/>
    <path class="cls-3" d="m1785.33,689.52c.01,10.79-7.78,19.88-17.81,21.25-10.68,1.46-20.48-4.75-23.45-14.8-.32-1.07-.16-1.47.97-1.73,9.76-2.24,19.51-4.55,29.26-6.83,3.04-.71,6.1-1.35,9.12-2.14,1.21-.32,1.56.18,1.66,1.16.12,1.19.19,2.38.24,3.09Z"/>
    <path class="cls-2" d="m1733.03,602.55h0c-46.38,0-83.98,37.6-83.98,83.98v84.88s0,10.97,0,10.97c0,5,6.06,7.48,9.57,3.93l10.13-10.27c2.19-2.22,5.77-2.22,7.96,0l21.53,21.83c2.19,2.22,5.77,2.22,7.96,0l21.53-21.83c2.19-2.22,5.77-2.22,7.96,0l21.53,21.83c2.19,2.22,5.77,2.22,7.96,0l21.53-21.83c2.19-2.22,5.77-2.22,7.96,0l12.77,12.95c3.51,3.56,9.57,1.07,9.57-3.92v-98.53c0-46.38-37.6-83.98-83.98-83.98Zm72.94,90.31v60.02c0,4.98-6.02,7.47-9.54,3.95l-2.46-2.46c-2.18-2.18-5.72-2.18-7.91,0l-21.16,21.16c-2.18,2.18-5.72,2.18-7.91,0l-22.58-22.58c-2.18-2.18-5.72-2.18-7.91,0l-20.53,20.53c-2.18,2.18-5.72,2.18-7.91,0l-19.27-19.27c-2.18-2.18-5.72-2.18-7.91,0l-1.25,1.25c-3.52,3.52-9.54,1.03-9.54-3.95v-64.18c0-40.28,32.65-72.93,72.93-72.93h0c40.28,0,72.93,32.65,72.93,72.93v5.53Z"/>
  </g>
</svg>