<svg viewBox="0 0 180 200" xmlns="http://www.w3.org/2000/svg" xmlns:svg="http://www.w3.org/2000/svg" data-name="Слой 2">
 
 <defs>
  <style>.cls-1 {
        fill: #fff;
      }

      .cls-2 {
        fill: #19132e;
      }

      .cls-3 {
        fill: #33276a;
      }</style>
 </defs>
 <g class="layer">
  
  <path class="cls-1" d="m164.89,129.22l0,-44.91c0,-40.28 -32.65,-72.93 -72.93,-72.93l0,0c-40.28,0 -72.93,32.65 -72.93,72.93l0,47.53l-4.37,0.08l-1.41,15.06l0,31.53l22.12,-15.76l24.71,23.06l30.12,-22.82l30.59,25.88l28.47,-25.88l15.65,13.49l6.7,-14.19l0,-33.18l-6.71,0.12l-0.01,-0.01z" id="svg_81"/>
  <path class="cls-3" d="m66.77,109.92c-12.33,0.55 -22.63,-10.03 -21.75,-22.34c0.26,-3.59 0.28,-3.68 3.77,-2.88c9.18,2.1 18.35,4.27 27.52,6.42c2.99,0.7 5.97,1.47 8.99,2.08c1.22,0.25 1.24,0.73 0.94,1.75c-2.52,8.55 -10.31,14.57 -19.47,14.98l0,-0.01z" id="svg_82"/>
  <path class="cls-3" d="m143.89,88.46c0.01,10.79 -7.78,19.88 -17.81,21.25c-10.68,1.46 -20.48,-4.75 -23.45,-14.8c-0.32,-1.07 -0.16,-1.47 0.97,-1.73c9.76,-2.24 19.51,-4.55 29.26,-6.83c3.04,-0.71 6.1,-1.35 9.12,-2.14c1.21,-0.32 1.56,0.18 1.66,1.16c0.12,1.19 0.19,2.38 0.24,3.09l0.01,0z" id="svg_83"/>
  <path class="cls-2" d="m91.59,1.49l0,0c-46.38,0 -83.98,37.6 -83.98,83.98l0,84.88s0,10.97 0,10.97c0,5 6.06,7.48 9.57,3.93l10.13,-10.27c2.19,-2.22 5.77,-2.22 7.96,0l21.53,21.83c2.19,2.22 5.77,2.22 7.96,0l21.53,-21.83c2.19,-2.22 5.77,-2.22 7.96,0l21.53,21.83c2.19,2.22 5.77,2.22 7.96,0l21.53,-21.83c2.19,-2.22 5.77,-2.22 7.96,0l12.77,12.95c3.51,3.56 9.57,1.07 9.57,-3.92l0,-98.53c0,-46.38 -37.6,-83.98 -83.98,-83.98l0,-0.01zm72.94,90.31l0,60.02c0,4.98 -6.02,7.47 -9.54,3.95l-2.46,-2.46c-2.18,-2.18 -5.72,-2.18 -7.91,0l-21.16,21.16c-2.18,2.18 -5.72,2.18 -7.91,0l-22.58,-22.58c-2.18,-2.18 -5.72,-2.18 -7.91,0l-20.53,20.53c-2.18,2.18 -5.72,2.18 -7.91,0l-19.27,-19.27c-2.18,-2.18 -5.72,-2.18 -7.91,0l-1.25,1.25c-3.52,3.52 -9.54,1.03 -9.54,-3.95l0,-64.18c0,-40.28 32.65,-72.93 72.93,-72.93l0,0c40.28,0 72.93,32.65 72.93,72.93l0,5.53l0.02,0z" id="svg_84"/>
 </g>
</svg>